<svg width="437" height="169" viewBox="0 0 437 169" fill="none" xmlns="http://www.w3.org/2000/svg">
<path fill-rule="evenodd" clip-rule="evenodd" d="M349.471 9.59845C349.778 9.03523 350.214 8.85613 350.688 8.80507C350.445 9.73958 349.728 10.4307 349.471 9.59845Z" fill="url(#paint0_linear_57_1909)"/>
<path fill-rule="evenodd" clip-rule="evenodd" d="M351.552 117.352C351.962 116.853 353.153 115.867 352.783 117.736C352.155 117.966 351.962 117.48 351.552 117.352Z" fill="url(#paint1_linear_57_1909)"/>
<path fill-rule="evenodd" clip-rule="evenodd" d="M353.039 119.696C353.244 118.813 353.962 119.53 354.384 119.3C354.206 120.439 353.206 120.234 353.039 119.696Z" fill="url(#paint2_linear_57_1909)"/>
<path fill-rule="evenodd" clip-rule="evenodd" d="M360.499 102.813C360.845 102.211 361.613 101.687 361.844 102.404C361.627 103.287 360.909 102.57 360.499 102.813Z" fill="url(#paint3_linear_57_1909)"/>
<path fill-rule="evenodd" clip-rule="evenodd" d="M360.494 120.054C361.082 119.005 361.876 118.634 362.876 118.864C362.351 120.08 361.326 119.773 360.494 120.054Z" fill="url(#paint4_linear_57_1909)"/>
<path fill-rule="evenodd" clip-rule="evenodd" d="M378.607 34.115C379.747 33.9618 382.269 32.2997 382.821 34.0906C381.604 33.0286 379.76 34.9979 378.607 34.115Z" fill="url(#paint5_linear_57_1909)"/>
<path fill-rule="evenodd" clip-rule="evenodd" d="M376.534 71.364C378.262 68.986 380.442 71.3913 382.452 69.7679C382.441 71.6735 379.775 70.176 379.046 71.736C378.636 71.6079 378.366 71.2753 378.059 70.9554C377.546 71.1343 376.907 72.4385 376.534 71.364Z" fill="url(#paint6_linear_57_1909)"/>
<path fill-rule="evenodd" clip-rule="evenodd" d="M393.072 75.9644C393.174 74.9399 393.391 74.2869 393.853 74.4023C393.943 74.7481 393.918 75.2859 393.803 75.9646C393.559 75.9645 393.315 75.9644 393.072 75.9644Z" fill="url(#paint7_linear_57_1909)"/>
<path fill-rule="evenodd" clip-rule="evenodd" d="M402.083 62.2048C403.465 60.3763 406.091 60.0956 407.334 61.4004C407.565 61.1447 407.667 60.4925 408 60.6077C408.884 60.3393 410.716 60.9409 408.858 60.9916C406.387 62.3594 404.734 61.2335 402.083 62.2048Z" fill="url(#paint8_linear_57_1909)"/>
<path fill-rule="evenodd" clip-rule="evenodd" d="M400.26 81.8055C400.618 81.204 401.092 80.9737 401.656 81.0123C401.4 81.9723 400.414 82.2152 400.26 81.8055Z" fill="url(#paint9_linear_57_1909)"/>
<path fill-rule="evenodd" clip-rule="evenodd" d="M409.012 30.4139C409.344 29.5182 410.19 30.2607 410.715 30.0177C410.28 30.5679 409.32 31.1947 409.012 30.4139Z" fill="url(#paint10_linear_57_1909)"/>
<path fill-rule="evenodd" clip-rule="evenodd" d="M402.537 75.1312C403.125 74.1073 404.112 74.3253 404.791 73.5446C405.087 75.068 403.267 74.901 402.537 75.1312Z" fill="url(#paint11_linear_57_1909)"/>
<path fill-rule="evenodd" clip-rule="evenodd" d="M402.641 80.6135C403.166 79.3851 404.191 79.7054 405.024 79.4241C404.409 80.4093 403.41 80.1786 402.641 80.6135Z" fill="url(#paint12_linear_57_1909)"/>
<path fill-rule="evenodd" clip-rule="evenodd" d="M412.069 20.9859C412.312 19.6545 413.029 19.7571 413.593 19.4116C413.312 20.6534 412.581 20.5124 412.069 20.9859Z" fill="url(#paint13_linear_57_1909)"/>
<path fill-rule="evenodd" clip-rule="evenodd" d="M411.586 30.4004C412.341 29.2621 414.365 29.4674 415.364 29.6083C413.943 30.5801 412.97 30.567 411.586 30.4004Z" fill="url(#paint14_linear_57_1909)"/>
<path fill-rule="evenodd" clip-rule="evenodd" d="M405.382 79.4223C406.585 77.5676 407.777 78.8984 408.558 79.0138C407.534 80.1137 406.521 78.284 405.382 79.4223Z" fill="url(#paint15_linear_57_1909)"/>
<path fill-rule="evenodd" clip-rule="evenodd" d="M410.331 60.9769C410.779 60.2858 411.407 60.1451 411.97 59.7869C411.843 61.4894 410.959 60.8491 410.331 60.9769Z" fill="url(#paint16_linear_57_1909)"/>
<path fill-rule="evenodd" clip-rule="evenodd" d="M411.396 64.8967C411.972 63.8987 412.292 64.3211 412.92 64.5005C412.652 65.3834 411.87 64.6537 411.396 64.8967Z" fill="url(#paint17_linear_57_1909)"/>
<path fill-rule="evenodd" clip-rule="evenodd" d="M412.345 69.5854C412.69 68.5484 414.1 68.2543 413.512 70.3668C413.089 70.5459 413.242 69.8033 413.319 69.1888C412.896 69.035 412.807 69.9056 412.345 69.5854Z" fill="url(#paint18_linear_57_1909)"/>
<path fill-rule="evenodd" clip-rule="evenodd" d="M420.325 39.3685C417.954 38.6895 419.186 41.032 420.325 39.3685V39.3685Z" fill="url(#paint19_linear_57_1909)"/>
<path fill-rule="evenodd" clip-rule="evenodd" d="M424.315 24.8414C425.186 23.9973 425.903 24.1766 426.762 24.4327C426.122 24.9827 424.648 25.1614 424.315 24.8414Z" fill="url(#paint20_linear_57_1909)"/>
<path fill-rule="evenodd" clip-rule="evenodd" d="M425.211 22.4847C425.107 21.2812 426.594 21.2689 426.133 22.4722C425.826 22.4849 425.518 22.4848 425.211 22.4847Z" fill="url(#paint21_linear_57_1909)"/>
<path fill-rule="evenodd" clip-rule="evenodd" d="M429.775 1.69489C430.146 0.87572 430.76 0.65829 431.171 0.901642C430.915 1.86166 429.929 2.10457 429.775 1.69489Z" fill="url(#paint22_linear_57_1909)"/>
<path fill-rule="evenodd" clip-rule="evenodd" d="M434.681 3.23204C436.46 1.33829 436.756 3.15588 434.681 3.23204V3.23204Z" fill="url(#paint23_linear_57_1909)"/>
<path fill-rule="evenodd" clip-rule="evenodd" d="M393.196 5.03718C393.58 4.48702 394.041 4.21842 394.348 3.46348C394.708 5.01204 395.936 3.54074 396.616 4.23199C395.439 6.01043 394.72 3.8731 393.196 5.03718Z" fill="url(#paint24_linear_57_1909)"/>
<path fill-rule="evenodd" clip-rule="evenodd" d="M409.243 37.4735C409.705 37.3075 409.539 38.1901 410.102 37.8578C410.064 38.4974 409.834 38.5356 409.745 39.0345C410.629 39.2908 411.218 38.6643 411.999 38.6264C411.859 38.9461 411.718 39.2659 411.642 39.8031C412.972 37.6292 413.731 40.9044 416.049 39.78C413.656 42.1452 409.272 40.7612 407.377 41.3869C407.862 39.8265 409.26 41.1577 409.681 39.4182C409.898 38.1903 408.694 39.2641 409.243 37.4735Z" fill="url(#paint25_linear_57_1909)"/>
<path fill-rule="evenodd" clip-rule="evenodd" d="M406.136 74.325C406.353 74.2482 406.302 73.9282 406.187 73.9282C406.365 73.0066 407.032 73.698 407.109 73.9285C406.738 75.042 404.38 74.5676 406.136 74.325Z" fill="url(#paint26_linear_57_1909)"/>
<path fill-rule="evenodd" clip-rule="evenodd" d="M420.466 69.1566C420.389 69.6809 420.313 70.2051 420.236 70.7293C421.428 70.5765 423.374 70.1043 423.965 71.4983C422.416 72.6868 419.813 70.1537 418.47 72.6977C418.291 72.3012 417.855 72.3266 417.662 71.9173C414.065 74.5753 410.886 72.157 407.287 73.9199C409.372 69.6629 412.041 75.1498 414.356 70.7521C414.613 70.9568 414.305 71.1613 414.113 71.1356C415.625 70.9957 418.188 71.7769 420.466 69.1566Z" fill="url(#paint27_linear_57_1909)"/>
<path fill-rule="evenodd" clip-rule="evenodd" d="M426.055 19.3464C426.439 18.6295 426.977 18.4248 427.386 17.7719C427.54 17.836 426.286 20.3837 426.055 19.3464Z" fill="url(#paint28_linear_57_1909)"/>
<path fill-rule="evenodd" clip-rule="evenodd" d="M50.8178 27.0445C49.9979 27.0825 48.8847 28.5655 48.0135 28.629C45.9766 28.7686 44.361 27.3609 42.1967 28.2678C40.2885 29.0598 38.3047 31.2586 36.3579 31.8203C34.9105 32.2416 34.373 32.8552 33.3742 33.4047C30.4419 35.0019 28.3017 34.4124 26.5632 38.5298C24.2854 41.3168 21.6606 43.0293 19.6515 45.6118C19.3316 46.0209 18.7934 45.8543 18.6782 46.0077C13.5596 52.5023 18.6049 49.8191 12.9723 54.5995C12.2186 56.9269 11.4786 60.2902 10.2258 63.2184C9.67618 64.5355 8.69051 65.4175 8.23055 66.7602C6.54402 71.6834 6.60103 77.8225 4.18318 81.6198C3.91529 82.8475 4.21025 83.1546 4.1982 83.9732C2.82367 93.7056 2.45979 101.865 0.967914 109.423C1.67666 113.798 0.68221 118.977 1.13451 123.121C1.40597 125.692 2.31784 128.084 2.78138 130.553C3.3093 133.367 3.99032 135.503 4.36455 138.369C3.95734 141.31 5.05959 141.784 4.9594 144.239C6.15251 145.967 6.89789 148.423 8.11656 150.086C8.11747 151.058 8.38705 151.621 8.26006 152.823C8.83768 153.987 9.13314 154.832 9.32593 155.484C9.62157 156.52 9.66025 156.789 9.98123 157.518C10.0968 157.787 11.2524 160.499 12.3925 160.397C13.1227 160.333 13.2754 159.182 13.8647 159.144C14.9152 159.081 14.3678 162.802 17.7253 163.674C19.2374 164.058 21.1589 163.791 22.76 163.408C22.8241 163.446 22.901 163.459 22.9651 163.459C23.3238 163.434 23.4769 162.769 23.9127 163.012C24.0169 164.867 25.186 168.282 26.6464 168.091C27.146 168.027 28.3478 165.457 29.5004 164.946C31.2037 164.18 32.2701 167.48 33.7941 166.88C34.4985 166.599 35.5085 164.297 36.2767 163.735C38.2739 162.278 41.8234 162.996 43.2462 163.7C44.246 164.2 44.5036 165.722 45.2467 165.709C45.3492 165.709 45.426 165.671 45.5157 165.645C46.7708 165.173 47.4489 164.15 48.1147 163.767C48.8062 163.371 50.3946 163.141 54.1875 163.783C57.4935 164.424 59.2485 164.182 60.2602 163.799C60.9518 163.543 61.4895 163.134 63.8586 162.01C64.2812 161.806 64.6398 161.64 64.8831 161.537C67.2297 163.751 70.3135 159.647 72.8121 159.93C73.3118 159.994 73.8121 160.762 74.3502 160.698C75.2341 160.609 76.5653 159.267 77.7562 158.73C79.7924 157.798 81.458 157.875 83.1737 156.751C85.0862 160.499 87.5033 155.883 89.5276 155.936C90.2835 155.949 90.8739 157.164 91.7323 157.101C92.4625 157.05 93.3198 155.874 94.1013 155.912C94.8829 155.938 95.5374 157.141 96.3188 157.065C96.8953 157.014 97.4455 156.221 97.9067 156.273C98.509 156.35 98.766 157.258 99.4449 157.054C100.149 156.824 101.045 155.289 101.749 155.085C104.349 154.306 106.849 155.753 109.613 152.698C113.574 154.887 117.849 150.732 122.579 153.024C123.949 152.155 124.961 151.529 126.178 152.22C126.511 151.913 126.638 150.98 127.087 151.044C129.573 152.043 132.799 148.579 135.324 149.833C135.477 149.373 135.656 148.938 135.861 148.657C139.36 150.296 144.087 150.26 147.339 147.819C149.365 149.636 152.335 147.233 155.153 146.992C156.486 146.877 157.64 147.876 158.946 147.365C161.495 146.368 164.545 147.201 166.953 146.537C167.67 146.346 168.502 145.183 169.206 144.966C170.487 144.557 171.654 145.606 173.05 144.942C178.428 142.412 184.053 143.579 188.512 143.3C189.882 143.211 191.239 141.869 192.84 141.32C195.491 140.413 197.851 142.346 200.489 141.669C201.155 141.504 201.885 140.685 202.499 140.481C204.088 139.97 205.446 140.636 207.086 140.458C211.07 140.038 215.347 137.623 218.82 139.223C223.93 136.361 230.759 136.761 236.344 135.997C237.879 133.785 238.816 135.551 240.122 135.193C244.195 134.108 249.574 131.374 253.496 132.77C271.427 127.919 289.351 128.44 307.155 123.104C308.284 124.639 310.512 123.476 311.856 122.288C311.972 123.285 312.766 123.183 313.33 123.452C315.839 120.717 318.275 122.649 321.08 121.845C322.115 119.262 323.5 121.079 324.793 119.084C325.037 120.453 324.038 120.324 324.679 121.041C327.071 116.323 332.748 118.104 335.591 116.685C335.411 116.685 335.462 115.995 335.705 115.905C336.193 117.018 336.819 114.704 337.536 114.73C342.468 113.914 346.55 109.145 350.93 107.229C351.366 107.843 352.483 109.724 353.199 107.998C352.481 107.767 351.52 107.958 351.839 106.053C353.005 106.603 354.759 105.645 355.796 104.072C357.358 103.805 358.013 104.764 359.587 103.269C359.92 103.282 359.534 101.299 360.239 101.312C362.264 102.183 363.569 100.444 365.376 101.289C366.182 99.4479 368.525 98.7713 369.09 99.7053C369.832 98.8871 368.602 98.2342 369.204 97.7485C371.035 97.0716 372.764 96.2156 374.213 97.3291C374.724 96.4596 375.146 95.2832 375.85 94.9766C376.311 94.8234 375.48 96.7542 376.223 96.1407C376.991 95.0795 375.991 94.3755 376.322 93.0072C377.283 92.317 377.243 91.3706 377.832 90.2582C378.909 91.2563 380.047 89.0059 381.238 88.2903C382.48 87.5364 383.659 88.1253 384.837 87.4865C385.849 86.937 386.437 85.556 387.513 85.5182C388.384 85.4803 388.923 86.8491 389.91 86.6706C390.46 86.3128 389.767 85.238 390.51 85.1105C393.969 84.4345 397.427 83.7457 400.269 81.1508C396.006 84.4484 393.646 81.3648 389.907 84.33C389.637 82.6033 388.243 85.5186 388.061 83.1652C387.691 84.1882 388.383 84.8536 387.64 84.7381C387.409 84.6101 387.371 84.1752 386.961 84.3413C387.727 82.2186 387.01 82.2566 386.932 80.8241C384.049 81.1167 381.668 82.2282 379.182 82.4315C378.658 82.9556 379.337 83.6082 378.761 83.9916C377.775 84.4004 377.083 84.1442 375.892 84.7959C375.775 83.261 375.121 82.5445 375.798 80.4857C379.129 80.4235 384.097 77.0751 388.119 76.5017C389.336 76.3361 390.375 77.833 391.411 75.314C389.515 76.1827 388.45 73.5346 386.938 73.3804C384.977 73.1875 382.481 75.7825 380.598 75.3722C380.06 75.2568 379.931 74.5533 379.431 74.6042C379.034 74.6296 378.215 75.8314 377.792 75.7928C377.331 75.7414 377.407 74.8973 376.997 75.0122C376.139 75.242 375.308 76.5717 374.385 76.584C372.835 76.596 371.514 75.2268 369.734 75.8269C369.515 75.149 369.885 73.4097 370.321 73.0774C372.332 73.0529 372.691 72.938 374.779 72.6577C374.574 72.4913 374.484 72.1588 374.585 71.4809C375.213 71.558 375.367 72.0313 375.93 71.0852C374.38 71.2634 374.928 68.2197 375.644 66.7876C379.386 67.0838 384.265 65.4109 387.264 66.3333C387.725 65.4766 388.095 64.3641 388.71 63.9807C392.386 62.7804 396.204 63.5371 400.123 62.3625C396.111 60.3012 391.411 61.9614 386.249 63.2121C386.108 62.8539 386.402 61.7669 385.876 62.0352C383.584 63.2746 381.124 63.1326 379.408 63.6305C378.894 61.9931 378.418 60.2918 377.968 58.5522C372.499 60.3015 369.598 53.6237 364.55 53.928C364.741 52.7386 364.395 52.4059 364.356 51.5873C364.893 50.59 365.34 49.3112 365.916 48.4418C366.749 48.3144 367.683 47.6242 368.299 48.4303C373.023 44.6726 378.726 46.7859 384.284 44.4355C385.192 42.4408 384.896 40.9826 384.677 39.3453C382.28 38.372 379.579 41.2483 377.22 38.9961C376.882 34.4427 378.34 31.1565 380.453 30.7611C383.963 30.1235 389.857 30.2033 392.01 30.7033C402.512 27.3451 412.416 27.8491 423.085 25.0665C417.435 24.5392 411.762 27.3244 406.828 25.9277C406.726 26.7845 406.496 27.1681 406.099 27.1039C401.077 26.9478 395.44 27.3541 390.765 29.1422C389.277 26.43 385.219 29.9707 383.717 27.22C384.789 22.7442 386.619 20.622 388.732 19.3697C386.708 19.7523 385.041 18.3957 383.401 18.2286C382.056 18.0872 379.508 19.5695 378.943 18.6483C378.802 18.418 379.249 17.4974 378.942 17.4717C379.493 17.5103 377.904 17.7781 377.776 17.8675C376.957 18.4298 377.047 18.7496 376.189 18.6597C375.074 18.544 375.112 18.48 374.535 17.4949C370.704 17.0325 366.708 18.6419 362.928 17.9492C362.531 17.8851 361.698 17.9997 361.647 17.9613C361.313 17.7054 361.735 16.9126 361.274 16.7973C361.005 16.7332 361.006 17.654 360.609 17.5771C359.135 17.3077 357.444 17.0255 355.893 17.2165C352.038 17.7005 347.668 16.8924 344.517 17.2744C343.863 17.0311 344.964 15.6376 344.016 15.7138C338.775 15.0844 333.202 14.6849 327.5 14.6308C327.09 14.5154 327.665 12.7763 326.999 13.0701C326.243 12.8267 326.181 14.7196 325.489 14.6425C325.117 14.1563 324.783 13.5933 324.68 12.6852C318.286 11.6459 311.28 13.663 304.401 14.7465C297.983 15.7535 291.642 16.1083 285.583 16.8085C280.804 17.356 276.053 19.2975 271.965 18.4384C266.099 20.1108 261.192 20.3257 255.85 20.8728C251.994 21.2545 247.894 20.6128 244.551 21.711C243.975 21.9025 243.194 22.8486 242.541 22.8994C241.567 22.9756 240.759 21.6962 239.785 21.7468C237.146 21.8606 234.227 23.6624 231.613 23.7505C228.667 23.8513 225.874 23.7603 222.991 23.7971C221.364 23.8219 219.623 25.1895 217.983 25.3804C216.894 25.5206 215.92 24.5224 214.805 24.6114C211.667 24.8655 208.26 26.7822 205.352 26.6144C201.47 26.3949 197.638 24.9349 193.374 27.0685C189.094 26.2989 183.713 26.5774 179.384 27.5344C176.37 24.6295 172.35 28.0678 168.558 27.5926C168.161 27.5412 167.968 26.9528 167.571 26.8119C161.996 24.8521 154.889 29.4399 150.404 27.6854C148.33 29.8458 147.111 27.6836 145.509 27.3247C143.779 26.9273 141.936 28.3843 140.194 28.5241C139.63 28.575 139.219 27.8201 138.655 27.7559C136.951 27.5632 135.069 28.969 133.109 29.3389C130.176 29.9001 127.585 26.7141 124 29.0016C121.654 27.6958 118.104 26.2487 114.941 28.2678C110.416 25.6307 104.975 29.3625 100.093 28.3495C98.4398 28.0033 97.1695 26.0202 95.1984 27.9888C94.7109 27.349 94.147 27.0546 93.5319 26.9391C91.8661 26.6441 90.0088 27.0524 89.2531 27.2311C81.6062 29.0943 77.5054 27.9922 72.4982 30.279C67.0172 32.7829 65.8423 36.8878 64.9326 36.7723C64.6635 36.7337 64.6632 36.3628 64.7141 36.0047C66.6698 31.2735 66.733 30.2887 66.4254 30.2502C65.4773 30.1602 60.489 39.0081 59.054 38.9051C58.234 38.8407 58.9231 35.9122 59.6127 33.4825C58.8069 34.9017 58.231 35.6176 57.8979 35.6047C57.4366 35.5916 57.4353 34.172 57.8939 31.3329C56.8678 30.0661 55.6258 30.948 54.3454 31.7403C53.0763 30.9338 52.637 26.9687 50.8178 27.0445ZM370.541 89.8962C370.439 90.3566 370.478 90.5996 370.606 90.6764C369.955 92.5818 369.465 89.8956 370.541 89.8962ZM371.027 89.1163C372.59 88.8613 374.984 86.9569 375.908 88.3131C376.203 88.3005 375.944 86.1005 376.495 85.5764C377.021 86.5103 377.701 87.1885 378.828 87.1252C378.459 90.3608 376.472 88.5692 375.988 91.4467C375.155 91.2288 374.758 91.1135 374.157 92.6224C372.529 91.6495 371.865 93.6699 370.672 92.6333C371.285 90.7535 370.632 91.2264 371.027 89.1163Z" fill="url(#paint29_linear_57_1909)"/>
<path d="M61.6445 62.0508H72.2969L72.2969 108H82.5977L82.5977 62.0508H93.25L93.25 54H61.6445L61.6445 62.0508ZM123.836 76.957H112.551L112.551 54H102.25L102.25 108H112.551L112.551 85.043H123.836L123.836 108H134.137L134.137 54H123.836L123.836 76.957ZM169.434 54H144.578L144.578 108H169.434L169.434 99.9492H154.879L154.879 85.043H167.113L167.113 76.957H154.879L154.879 62.0508H169.434L169.434 54ZM207.93 54L207.93 108H234.859L239.676 103.184L239.676 58.8164L234.859 54H207.93ZM226.949 99.9492H218.23L218.23 62.0508H226.949L229.445 64.582L229.445 97.418L226.949 99.9492ZM268.891 97.418L266.395 99.9492H263.195L260.77 97.418L260.77 87.7852H250.469L250.469 103.184L255.285 108H274.305L279.121 103.184L279.121 54H268.891L268.891 97.418Z" fill="white"/>
<defs>
<linearGradient id="paint0_linear_57_1909" x1="349.47" y1="8.80469" x2="350.691" y2="8.80662" gradientUnits="userSpaceOnUse">
<stop stop-color="#DD5AFE"/>
<stop offset="1" stop-color="#6366F1"/>
</linearGradient>
<linearGradient id="paint1_linear_57_1909" x1="351.552" y1="116.642" x2="352.856" y2="116.644" gradientUnits="userSpaceOnUse">
<stop stop-color="#DD5AFE"/>
<stop offset="1" stop-color="#6366F1"/>
</linearGradient>
<linearGradient id="paint2_linear_57_1909" x1="353.039" y1="119.241" x2="354.387" y2="119.245" gradientUnits="userSpaceOnUse">
<stop stop-color="#DD5AFE"/>
<stop offset="1" stop-color="#6366F1"/>
</linearGradient>
<linearGradient id="paint3_linear_57_1909" x1="360.499" y1="102.057" x2="361.847" y2="102.061" gradientUnits="userSpaceOnUse">
<stop stop-color="#DD5AFE"/>
<stop offset="1" stop-color="#6366F1"/>
</linearGradient>
<linearGradient id="paint4_linear_57_1909" x1="360.493" y1="118.798" x2="362.881" y2="118.806" gradientUnits="userSpaceOnUse">
<stop stop-color="#DD5AFE"/>
<stop offset="1" stop-color="#6366F1"/>
</linearGradient>
<linearGradient id="paint5_linear_57_1909" x1="378.606" y1="33.2654" x2="382.83" y2="33.2989" gradientUnits="userSpaceOnUse">
<stop stop-color="#DD5AFE"/>
<stop offset="1" stop-color="#6366F1"/>
</linearGradient>
<linearGradient id="paint6_linear_57_1909" x1="376.533" y1="69.7654" x2="382.465" y2="69.799" gradientUnits="userSpaceOnUse">
<stop stop-color="#DD5AFE"/>
<stop offset="1" stop-color="#6366F1"/>
</linearGradient>
<linearGradient id="paint7_linear_57_1909" x1="393.071" y1="74.3889" x2="393.909" y2="74.3893" gradientUnits="userSpaceOnUse">
<stop stop-color="#DD5AFE"/>
<stop offset="1" stop-color="#6366F1"/>
</linearGradient>
<linearGradient id="paint8_linear_57_1909" x1="402.082" y1="60.5374" x2="409.676" y2="60.6088" gradientUnits="userSpaceOnUse">
<stop stop-color="#DD5AFE"/>
<stop offset="1" stop-color="#6366F1"/>
</linearGradient>
<linearGradient id="paint9_linear_57_1909" x1="400.259" y1="81.0078" x2="401.659" y2="81.0112" gradientUnits="userSpaceOnUse">
<stop stop-color="#DD5AFE"/>
<stop offset="1" stop-color="#6366F1"/>
</linearGradient>
<linearGradient id="paint10_linear_57_1909" x1="409.011" y1="29.9573" x2="410.719" y2="29.9639" gradientUnits="userSpaceOnUse">
<stop stop-color="#DD5AFE"/>
<stop offset="1" stop-color="#6366F1"/>
</linearGradient>
<linearGradient id="paint11_linear_57_1909" x1="402.536" y1="73.5439" x2="404.828" y2="73.5496" gradientUnits="userSpaceOnUse">
<stop stop-color="#DD5AFE"/>
<stop offset="1" stop-color="#6366F1"/>
</linearGradient>
<linearGradient id="paint12_linear_57_1909" x1="402.641" y1="79.4233" x2="405.029" y2="79.4322" gradientUnits="userSpaceOnUse">
<stop stop-color="#DD5AFE"/>
<stop offset="1" stop-color="#6366F1"/>
</linearGradient>
<linearGradient id="paint13_linear_57_1909" x1="412.068" y1="19.4111" x2="413.596" y2="19.4133" gradientUnits="userSpaceOnUse">
<stop stop-color="#DD5AFE"/>
<stop offset="1" stop-color="#6366F1"/>
</linearGradient>
<linearGradient id="paint14_linear_57_1909" x1="411.585" y1="29.4961" x2="415.373" y2="29.5256" gradientUnits="userSpaceOnUse">
<stop stop-color="#DD5AFE"/>
<stop offset="1" stop-color="#6366F1"/>
</linearGradient>
<linearGradient id="paint15_linear_57_1909" x1="405.381" y1="78.4436" x2="408.565" y2="78.4643" gradientUnits="userSpaceOnUse">
<stop stop-color="#DD5AFE"/>
<stop offset="1" stop-color="#6366F1"/>
</linearGradient>
<linearGradient id="paint16_linear_57_1909" x1="410.33" y1="59.7864" x2="411.974" y2="59.7901" gradientUnits="userSpaceOnUse">
<stop stop-color="#DD5AFE"/>
<stop offset="1" stop-color="#6366F1"/>
</linearGradient>
<linearGradient id="paint17_linear_57_1909" x1="411.395" y1="64.2568" x2="412.923" y2="64.2632" gradientUnits="userSpaceOnUse">
<stop stop-color="#DD5AFE"/>
<stop offset="1" stop-color="#6366F1"/>
</linearGradient>
<linearGradient id="paint18_linear_57_1909" x1="412.344" y1="68.7876" x2="413.656" y2="68.789" gradientUnits="userSpaceOnUse">
<stop stop-color="#DD5AFE"/>
<stop offset="1" stop-color="#6366F1"/>
</linearGradient>
<linearGradient id="paint19_linear_57_1909" x1="418.97" y1="39.2412" x2="420.328" y2="39.2458" gradientUnits="userSpaceOnUse">
<stop stop-color="#DD5AFE"/>
<stop offset="1" stop-color="#6366F1"/>
</linearGradient>
<linearGradient id="paint20_linear_57_1909" x1="424.315" y1="24.2195" x2="426.767" y2="24.2348" gradientUnits="userSpaceOnUse">
<stop stop-color="#DD5AFE"/>
<stop offset="1" stop-color="#6366F1"/>
</linearGradient>
<linearGradient id="paint21_linear_57_1909" x1="425.205" y1="21.5757" x2="426.224" y2="21.5775" gradientUnits="userSpaceOnUse">
<stop stop-color="#DD5AFE"/>
<stop offset="1" stop-color="#6366F1"/>
</linearGradient>
<linearGradient id="paint22_linear_57_1909" x1="429.774" y1="0.807373" x2="431.174" y2="0.810378" gradientUnits="userSpaceOnUse">
<stop stop-color="#DD5AFE"/>
<stop offset="1" stop-color="#6366F1"/>
</linearGradient>
<linearGradient id="paint23_linear_57_1909" x1="434.68" y1="2.3728" x2="436.132" y2="2.37718" gradientUnits="userSpaceOnUse">
<stop stop-color="#DD5AFE"/>
<stop offset="1" stop-color="#6366F1"/>
</linearGradient>
<linearGradient id="paint24_linear_57_1909" x1="393.195" y1="3.46313" x2="396.623" y2="3.47721" gradientUnits="userSpaceOnUse">
<stop stop-color="#DD5AFE"/>
<stop offset="1" stop-color="#6366F1"/>
</linearGradient>
<linearGradient id="paint25_linear_57_1909" x1="407.373" y1="37.4514" x2="416.066" y2="37.4854" gradientUnits="userSpaceOnUse">
<stop stop-color="#DD5AFE"/>
<stop offset="1" stop-color="#6366F1"/>
</linearGradient>
<linearGradient id="paint26_linear_57_1909" x1="405.492" y1="73.4622" x2="407.112" y2="73.4659" gradientUnits="userSpaceOnUse">
<stop stop-color="#DD5AFE"/>
<stop offset="1" stop-color="#6366F1"/>
</linearGradient>
<linearGradient id="paint27_linear_57_1909" x1="407.283" y1="69.1504" x2="423.999" y2="69.2653" gradientUnits="userSpaceOnUse">
<stop stop-color="#DD5AFE"/>
<stop offset="1" stop-color="#6366F1"/>
</linearGradient>
<linearGradient id="paint28_linear_57_1909" x1="426.053" y1="17.7715" x2="427.402" y2="17.7727" gradientUnits="userSpaceOnUse">
<stop stop-color="#DD5AFE"/>
<stop offset="1" stop-color="#6366F1"/>
</linearGradient>
<linearGradient id="paint29_linear_57_1909" x1="0.876709" y1="12.2275" x2="424" y2="14.3729" gradientUnits="userSpaceOnUse">
<stop stop-color="#DD5AFE"/>
<stop offset="1" stop-color="#6366F1"/>
</linearGradient>
</defs>
</svg>
