<svg width="24" height="24" viewBox="0 0 24 24" fill="none" xmlns="http://www.w3.org/2000/svg">
<path fill-rule="evenodd" clip-rule="evenodd" d="M12.0001 3.42856C7.26627 3.42856 3.42871 7.26612 3.42871 12C3.42871 16.7339 7.26627 20.5714 12.0001 20.5714C16.734 20.5714 20.5716 16.7339 20.5716 12C20.5716 9.7267 19.6685 7.54653 18.0611 5.93907C16.4536 4.33162 14.2734 3.42856 12.0001 3.42856ZM14.7787 13.7857C14.9822 13.9904 15.0425 14.2974 14.9315 14.5639C14.8206 14.8303 14.5602 15.0038 14.2716 15.0036C14.0866 14.9944 13.9125 14.9137 13.7859 14.7786L12.018 12.9928L10.2501 14.7786C10.1162 14.9127 9.93436 14.988 9.74478 14.988C9.5552 14.988 9.3734 14.9127 9.23942 14.7786C9.1053 14.6446 9.02993 14.4628 9.02993 14.2732C9.02993 14.0836 9.1053 13.9018 9.23942 13.7678L11.0251 12L9.23942 10.2321C8.96032 9.95303 8.96032 9.50052 9.23942 9.22142C9.51853 8.94231 9.97104 8.94231 10.2501 9.22142L12.018 11.0071L13.7859 9.22142C14.065 8.94231 14.5175 8.94231 14.7966 9.22142C15.0757 9.50052 15.0757 9.95303 14.7966 10.2321L13.0109 12L14.7787 13.7857Z" fill="#FBC625"/>
</svg>
